<svg xmlns="http://www.w3.org/2000/svg" viewBox="0 0 944 529">
  <defs>
    <clipPath id="a">
      <path d="M0 3968.504h7086.614V0H0z"/>
    </clipPath>
  </defs>
  <g clip-path="url(#a)" transform="matrix(1.33333 0 0 -1.33333 0 5291.333)">
    <path d="M3357.31 3492.254V2774.2c0-59.303-11.603-114.55-34.505-166.2-22.95-51.555-53.604-96.46-91.862-134.767-38.356-38.094-83.202-68.272-134.862-90.11-51.55-22.217-106.21-32.928-164.46-32.928h-4.64c-58.15.95-112.81 12.453-163.78 34.398-51.07 21.848-96.98 53.294-137.81 94.03-39.78 40.833-70.28 86.946-91.07 138.558-20.9 51.61-30.81 106.37-29.97 164.51l258.86-2.95c0-45.9 15.72-85.69 47.49-119.3 33.56-33.71 73.45-50.59 119.35-50.59 22.48 0 43.9 4.07 64.38 12.14 20.26 8.13 38.31 19.9 53.56 35.19 15.36 15.36 27.54 33.19 36.68 53.72 9.28 20.31 13.82 42.27 13.82 65.69v716.68zm607.623-1142.058c-57.136 0-111.272 10.237-162.245 31.283-51.127 20.94-96.506 50.71-136.284 89.49-40.843 40.99-72.288 86.74-94.137 137.87-22.003 51.12-33.448 105.52-34.504 163.72v719.79h258.81V2774.2c0-45.166 16.777-84.102 50.38-118.084 33.77-31.503 73.56-47.276 119.518-47.276 22.42 0 43.9 4.645 64.32 13.827 20.42 9.076 38.25 21.47 53.56 36.826 15.36 15.095 27.07 32.976 35.3 53.392 8.13 20.532 12.09 42.535 12.09 65.96v713.517h258.91V2780.22c1.01-57.988-9.55-113.13-31.38-165.158-22-52.23-52.13-97.658-90.33-136.39-38.3-38.83-83.26-69.91-134.75-92.704-51.61-22.903-106.42-34.776-164.57-35.772zm951.327 0c-35.723 0-70.332-3.376-105.63 6.434-35.19 9.608-68.65 18.152-100.252 38.733-55.134 35.82-97.977 75.026-128.688 131.59-30.547 56.662-45.903 118.607-45.903 185.932h258.692c0-30.595 6.75-54.233 20.04-71.224 13.3-16.88 24.91-28.17 35.14-34.24 18.41-12.4 38.25-19.05 59.73-20.1 21.53-1 42.37 2.95 62.78 12.24 14.19 6.23 25.8 13.94 34.51 23.12 8.54 9.08 15.19 18.05 19.89 26.8 4.58 8.76 7.33 17.1 8.38 25.12.95 8.23 1.47 14.88 1.47 19.95 0 5.06-.52 11.71-1.47 19.84-1.05 8.34-3.8 16.89-8.39 26.18-4.71 9.08-11.35 18.05-19.9 26.81-8.71 8.76-20.32 16.57-34.51 23.64-11.19 5.23-23.22 9.71-35.93 13.72-12.82 4.22-26.33 8.71-40.58 13.88-25.54 7.97-52.13 17.42-79.67 27.6-27.6 10.03-55.14 23.85-82.79 41.26-35.56 22.48-65.63 50.55-90.28 84.16-24.44 33.67-42.16 70.12-52.66 108.86-10.82 38.62-14.41 78.77-10.82 120.14 3.59 41.41 15.04 80.77 34.46 118.71 18.3 34.67 41.31 64.74 68.91 90.28 27.53 25.6 58.14 45.64 91.85 60.48 33.66 14.773 69.86 23.64 108.7 26.743 38.772 3.17 78.14-.58 117.922-10.61 38.725-9.08 73.71-24.01 105.16-43.69 31.49-19.94 58.61-44 81.46-71.967 22.734-28.07 40.37-59.512 52.5-94.02 12.24-34.77 18.2-71.075 18.2-108.695h-257.3c0 23.377-7.396 39.68-22.278 48.757-14.77 9.34-27.8 15.466-39.147 18.47-1.897 0-6.755.74-14.3 2.317-7.646 1.48-16.517 1.48-26.067 0-9.81-1.58-19.78-5.06-29.86-10.91-10.28-5.334-18.47-14.3-24.58-26.54-8.07-16.47-9.76-33.51-4.6-51.294 5.12-18.04 15.42-31.92 30.71-42.2 14.2-8.23 30.03-15.51 47.43-22.06 17.37-6.8 35.68-13.08 55.15-19.206 17.21-5.17 34.93-10.81 52.72-16.89 17.83-6.112 35.924-13.234 54.135-21.362 66.9-30.76 119.51-75.713 157.55-134.814 37.99-59.303 57.14-125.16 57.14-197.54 0-71.34-19.15-136.82-57.14-195.86-38.044-59.36-90.284-91.6-157.35-122.21-26.48-12.13-53.235-16.61-80.83-22.2-27.595-5.54-56.19-4.06-83.734-4.06m1129.15 1142.32V3208.8h-215.85v-858.6h-258.71v860.144h-214.46v282.182zm-2973-2388.392c-72.5 0-143.2 13.62-211.96 40.95-69.002 27.328-131.01 68.9-186.09 124.52-53.13 54.77-93.71 116.4-121.67 185.09-28.174 68.6-42.205 141.096-42.205 217.6 0 77.245 14.03 150.48 42.21 219.075 27.962 68.43 68.542 129.69 121.672 183.35 55.086 55.66 117.35 97.45 186.68 125.42 69.49 27.75 140.25 41.84 212.11 41.84 71.968 0 142.457-14.09 211.26-41.84 69.02-27.96 130.96-69.75 186.05-125.42l-182.14-184.3c-29.655 30.13-63.317 52.45-100.996 67.22-37.983 15.19-76.13 22.636-114.91 22.636-38.73 0-76.823-7.44-114.182-22.63-37.26-14.772-70.55-37.093-100.15-67.224-28.545-29.97-50.55-63.42-65.854-100.46-15.3-37.26-22.95-76.41-22.95-117.67 0-41.36 7.65-80.41 22.95-117.03 15.307-36.51 37.31-69.97 65.85-99.72 29.6-29.87 62.89-52.24 100.145-67.43 37.355-14.78 75.45-22.48 114.18-22.48 38.78 0 76.927 7.7 114.91 22.474 37.68 15.19 71.34 37.56 101 67.43l182.14-185.94c-55.087-55.62-116.82-97.195-185.257-124.52-68.22-27.335-139.35-40.95-212.79-40.95m963.51 262.45c41.9 0 81.15 8.33 118.027 24.27 36.67 16.04 68.75 38.2 96.35 65.96 27.59 28.17 49.23 60.672 65.06 98.13 15.77 37.25 23.68 77.354 23.68 119.774 0 42.523-7.92 82.1-23.69 119.67-15.83 37.144-37.47 69.753-65.06 97.93-27.597 27.855-59.68 49.906-96.35 66.056-36.878 15.936-76.13 23.956-118.028 23.956s-81.045-8.02-117.82-23.95c-36.72-16.15-69.02-38.2-96.506-66.05-27.7-28.177-49.33-60.786-65.05-97.93-15.94-37.57-23.7-77.147-23.7-119.67 0-42.42 7.76-82.528 23.697-119.778 15.723-37.46 37.35-69.96 65.05-98.13 27.49-27.76 59.79-49.92 96.51-65.96 36.78-15.94 75.925-24.265 117.823-24.265m-.8 878.507c77.517 0 150.377-14.99 218.706-45.06 68.22-30.13 128-70.593 178.866-121.982 51.08-51.503 91.18-111.65 120.883-181.19 29.44-69.23 44.32-143.52 44.32-222.136 0-78.83-14.88-152.91-44.32-222.45-29.705-69.335-69.802-129.91-120.88-181.294-50.87-51.08-110.643-91.706-178.87-121.89-68.33-30.176-141.19-44.95-218.702-44.95-77.35 0-150.26 14.774-218.59 44.952-68.33 30.18-127.8 70.81-178.24 121.89-50.284 51.382-90.274 111.96-119.93 181.29-29.6 69.54-44.315 143.62-44.315 222.45 0 78.62 14.71 152.91 44.31 222.14 29.654 69.54 69.644 129.684 119.93 181.19 50.44 51.39 109.91 91.85 178.24 121.98 68.33 30.074 141.244 45.063 218.594 45.063m1534.41-.58l268.88.58-.52-1142.33h-258.75l-.54 485.11-207.09-485.11h-194.96l-235.37 483.84-.63-483.84H4680.3v1142.3l264.605-.58 320.432-762.27zm1135.58-277.53h-462.46V1797.1h375.14v-258.75h-375.14v-177.7h462.46v-257.38h-721.29v1142.44l721.277-1.16zm-5068.603 364.3l-187.41 228.04-295.47 355.78-48.65 21.79-31.004 3.373-50.367-6.86-32.85-8.223-91.99-45.22-43.51-27.75-479.907-319.9c-.61-.42-1.05-1.26-1.77-1.89-.393-.32-.95-.64-1.42-1.27-124.41-124.31-124.41-326.02 0-450.34L1733.41 1171.7c146.096-111.43 326.03-124.41 450.44 0 58.356 58.36 89.28 134.13 92.55 210.85 4.7 25.86 7.17 52.66 7.17 80.2v178.24l-378.62 390.407zm643.453 892.01c-2.16 78.51-32.973 156.39-92.86 216.436-124.362 124.415-308.086 107.637-450.45 0l-390.39-260.23-8.925-8.495s-11.08-9.444-17.193-15.676c-11.09-11.02-7.023-6.28-26.49-27.32l-15.72-19.52-17.095-25.91-17.25-31.86-13.983-33.72-10.925-36.56-3.96-44.47 8.236-42.21 21.055-46.65 51.6-58.88 84.68-82 203.14-165.67 209.46-168.85 265.51-206.2 225.18-167.38V3002.9c0 81.78 2.75 157.6-3.64 220.44" fill="#375e29"/>
    <path d="M1736.944 3439.386c142.467 107.856 326.5 124.577 451.126 0 60.098-60.097 90.76-137.968 93.13-216.7 3.223-31.34 4.063-65.843 4.17-102.564 0 37.93-.947 73.496-4.17 105.738-2.37 78.615-33.032 156.544-93.13 216.536-124.626 124.73-308.66 107.952-451.126 0l-228.147-152.067 1.267-2.16z" fill="#6bc630"/>
    <path d="M2188.128 3439.386c-124.684 124.577-308.62 107.856-451.184 0l-226.88-151.214 109.115-182.612c10.65-17.736 26.11-31.243 44-40 27.7-13.72 61.15-15.298 90.43-2.216l164.68 87.005 18.83 10.49 15.3 8.29 15.29 3.53 14.04-2.37 10.54-6.97 8.23-15.36 10.55-28.18s48.06-136.13 48.01-136.13c22.9-49.97 80.83-73.24 131.91-53.3l93.65 36.63v37.99c0 40.2.73 78.72.68 115.13-.11 36.72-1.01 71.22-4.22 102.56-2.22 78.73-33.03 156.6-93.02 216.7" fill="#6bc630"/>
  </g>
</svg>
